<?xml version="1.0" standalone="no"?>
<!DOCTYPE svg PUBLIC "-//W3C//DTD SVG 20010904//EN"
 "http://www.w3.org/TR/2001/REC-SVG-20010904/DTD/svg10.dtd">
<svg version="1.0" xmlns="http://www.w3.org/2000/svg"
 width="1280.000000pt" height="774.000000pt" viewBox="0 0 1280.000000 774.000000"
 preserveAspectRatio="xMidYMid meet">
<g transform="translate(0.000000,774.000000) scale(0.100000,-0.100000)"
fill="#000000" stroke="none">
<path d="M4720 7081 c-877 -356 -2288 -928 -3135 -1271 -847 -343 -1544 -627
-1549 -631 -5 -4 461 -241 1036 -527 l1045 -519 6 -69 c3 -38 14 -227 23 -420
l18 -350 -31 -40 c-57 -71 -62 -149 -14 -229 12 -20 21 -50 21 -67 0 -16 -18
-172 -40 -347 -91 -726 -136 -1172 -120 -1200 14 -28 127 -114 187 -145 29
-14 78 -33 110 -41 112 -29 342 -12 390 30 l26 21 -16 115 c-49 345 -76 723
-83 1169 -4 285 -3 359 8 376 73 118 73 118 72 175 -1 41 -8 68 -29 106 l-29
51 23 278 c12 153 25 282 27 286 3 5 12 8 20 8 8 0 833 -410 1834 -910 1001
-501 1827 -910 1835 -910 8 0 1017 503 2242 1119 1225 615 2666 1337 3201
1606 536 268 970 491 965 495 -9 7 -6435 2490 -6443 2489 -3 0 -723 -292
-1600 -648z"/>
<path d="M3275 3358 c-2 -7 -25 -204 -49 -438 -127 -1198 -148 -1389 -166
-1553 -11 -98 -18 -183 -15 -187 8 -14 233 -166 385 -262 448 -283 954 -524
1396 -668 452 -146 917 -228 1414 -247 128 -5 201 -1 540 33 712 71 1457 323
2200 747 207 118 611 374 624 396 2 3 0 44 -5 91 -13 128 -189 1935 -195 2005
-3 33 -8 66 -10 73 -3 9 -481 -226 -1522 -748 l-1517 -762 -1533 766 c-842
421 -1534 766 -1537 766 -3 0 -8 -6 -10 -12z"/>
</g>
</svg>
